<svg width="403" height="431" viewBox="0 0 403 431" fill="none" xmlns="http://www.w3.org/2000/svg">
<path d="M223.06 252.61L222.72 252.73C222.775 252.845 222.839 252.955 222.91 253.06C223.031 253.018 223.138 252.941 223.217 252.841C223.297 252.74 223.347 252.618 223.36 252.491C223.333 252.474 223.303 252.464 223.272 252.461C223.24 252.458 223.209 252.463 223.18 252.474C223.15 252.486 223.124 252.504 223.103 252.528C223.083 252.552 223.068 252.58 223.06 252.61Z" fill="white"/>
<path d="M222.75 252.26C222.883 252.116 223.065 252.027 223.26 252.01C223.244 251.951 223.246 251.888 223.268 251.831C223.289 251.773 223.329 251.724 223.38 251.69C222.98 251.69 222.66 252.07 222.31 252.22C222.372 252.271 222.45 252.298 222.53 252.298C222.61 252.298 222.688 252.271 222.75 252.22V252.26Z" fill="white"/>
<path d="M189.89 250.24C189.42 250.24 189.15 250.79 188.89 251.13C188.63 251.47 188.16 251.62 187.83 251.95C187.5 252.28 187.39 253.02 186.83 253.3C186.373 253.569 186.02 253.985 185.83 254.48C185.56 254.97 185.25 256.2 184.58 256.26C184.2 256.26 184.35 256 184.11 256.45C183.973 256.66 183.89 256.901 183.87 257.15C183.87 257.9 184.39 257.95 184.96 257.78C184.88 257.89 184.49 258.34 184.61 258.48C184.73 258.62 185.14 258.65 185.04 259.09C185.585 259.133 186.126 258.973 186.56 258.64C187.03 258.242 187.584 257.955 188.18 257.8C188.488 257.689 188.788 257.559 189.08 257.41C189.002 257.173 188.86 256.962 188.67 256.8C188.407 256.483 188.198 256.125 188.05 255.74C187.61 254.56 188.65 253.55 189.28 252.69C189.74 252.07 190.62 250.87 189.86 250.24H189.89Z" fill="white"/>
<path d="M181.45 235.27C181.536 235.548 181.544 235.844 181.474 236.127C181.404 236.409 181.258 236.667 181.052 236.873C180.847 237.078 180.589 237.224 180.306 237.294C180.024 237.364 179.728 237.356 179.45 237.27C179.403 237.561 179.387 237.856 179.4 238.15C179.67 239.04 178.86 239.67 178.4 240.36C178.141 240.849 177.804 241.292 177.4 241.67C177.242 241.848 177.147 242.073 177.13 242.31C176.972 243.343 176.939 244.39 177.03 245.43C177.27 246.16 178.03 246.35 178.03 247.24C178.053 247.462 178.033 247.686 177.97 247.9H178.23C178.38 246.75 179.07 247.47 179.61 247.47C179.97 247.37 179.85 246.72 180.36 246.7C180.6 246.16 181.12 245.93 181.12 246.7C181.83 246.7 182.5 246.46 183.23 246.47H183.61C186.04 246.47 187.79 249.38 189.87 249.23C190.49 249.23 190.65 249.77 191.31 249.46C191.59 249.33 193.48 248.58 193.46 248.57C193.446 248.539 193.438 248.505 193.438 248.471C193.438 248.436 193.446 248.402 193.46 248.371C193.474 248.34 193.495 248.312 193.521 248.289C193.547 248.267 193.577 248.25 193.61 248.24L194.22 248.02C194.259 248.007 194.3 248.004 194.34 248.01C194.381 248.017 194.419 248.033 194.451 248.058C194.484 248.082 194.51 248.115 194.527 248.152C194.544 248.189 194.552 248.23 194.55 248.27V248.48H194.63V248.16C194.63 247.36 197.35 248.44 197.33 248.5C197.07 249.63 197.96 250.97 197.03 251.96C196.44 252.6 196.1 253.63 195.53 254.34H195.48C194.96 255.152 194.197 255.778 193.3 256.13H193.22C192.828 256.162 192.447 256.277 192.102 256.466C191.758 256.656 191.457 256.916 191.22 257.23C191.577 257.355 191.893 257.574 192.134 257.865C192.375 258.156 192.533 258.507 192.59 258.88C192.59 258.88 194.11 260.59 193.08 260.41C192.82 260.41 192.57 260.41 192.31 260.41C192.303 260.807 192.146 261.186 191.87 261.47C194.59 262.47 191.35 263.23 191.37 263.69C192.19 263.69 191.49 264.63 191.45 265.08C192.56 265 193.3 266.42 193.98 267.13C194.055 267.208 194.107 267.305 194.13 267.41C194.236 267.4 194.344 267.4 194.45 267.41C195.15 267.6 195.45 268.05 196.04 268.41L196.22 268.51C198.22 269.6 196.27 269.23 195.94 269.94C196.78 269.94 196.94 271.99 197.94 272.33C198.94 272.67 199.79 273.08 200.75 273.33C201.32 273.49 203.26 273.33 203.51 273.96C203.73 272.81 205.58 272.59 206.28 271.69C205.87 271.35 207.84 267.51 208.05 266.9V266.77C208.32 265.98 208.58 265.28 209.46 265.11C209.96 265.11 210.59 264.31 210.85 264.04C209.32 263.04 212.59 263.16 211.95 263.45C211.92 263.225 211.92 262.996 211.95 262.77C211.95 262.52 211.51 261.86 211.23 261.86C211.14 261.86 211.1 260.04 212.33 261.07C212.46 261.07 212.61 260.94 212.67 260.79C211.96 259.65 212.86 258.84 214.02 258.55H214.19C214.86 258.38 215.29 257.85 216.03 257.97C216.03 257.45 216.53 256.92 217.03 257.22C217.27 256.8 218.15 257.22 218.7 256.7C218.46 256.59 218.43 256.43 218.62 256.23L218.76 256.15C218.87 256.09 220.71 255.47 220.24 256.22V256.29C220.161 256.412 220.091 256.539 220.03 256.67C220.56 256.74 220.88 256.17 221.38 256.55C221.69 255.55 223.38 257 222.38 257.55C223.38 257.28 222.55 256.38 222.87 255.76C222.76 255.715 222.67 255.633 222.613 255.529C222.556 255.425 222.536 255.305 222.557 255.188C222.578 255.071 222.639 254.965 222.728 254.887C222.818 254.809 222.931 254.765 223.05 254.76H223.11H223.29C223.47 254.11 222.64 253.69 222.29 253.09C222.09 252.75 220.29 252.31 219.94 252.09C219.36 251.74 218.61 250.74 217.94 250.74H217.69C216.69 250.74 216.69 250.17 216.69 249.42C214.96 249.17 218.22 243.9 218.53 243.23C218.24 242.9 218.53 242.4 218.7 242.1C218.876 241.886 219.081 241.697 219.31 241.54L219.4 241.47C219.608 241.32 219.847 241.217 220.1 241.17C220.1 241.11 220.03 241.12 220 241.06C218.76 240.46 218.82 239.25 217.57 238.38C217.541 238.373 217.516 238.355 217.5 238.33C217.193 237.944 216.829 237.607 216.42 237.33C215.81 237.16 215.36 237.69 214.77 237.65C214.41 237.65 214.35 237.55 214.23 237.25C213.89 236.551 213.808 235.754 214 235C214.3 233.636 214.192 232.214 213.69 230.91C213.55 230.74 213.33 230.75 213.13 230.7C212.25 230.59 212.24 229.12 211.93 228.54C211.62 227.96 210.6 227.47 209.98 227.75C209.74 228.1 210.1 228.81 210.18 229.16C210.4 229.96 209.94 230.23 209.23 230.23C209.18 230.72 209.12 231.01 208.59 231.14C208.416 231.203 208.239 231.256 208.06 231.3C207.67 231.47 207.42 231.88 206.94 231.82C206.732 231.759 206.538 231.657 206.37 231.52C206.264 231.713 206.193 231.923 206.16 232.14V232.26C206.1 232.6 206.02 232.93 205.93 233.26C205.903 233.408 205.84 233.547 205.745 233.664C205.651 233.781 205.529 233.873 205.39 233.93H205.27C205.251 233.94 205.231 233.945 205.21 233.945C205.189 233.945 205.169 233.94 205.15 233.93C205.08 233.946 205.008 233.948 204.938 233.936C204.868 233.924 204.8 233.898 204.74 233.86C204.619 233.843 204.496 233.853 204.378 233.887C204.261 233.921 204.153 233.981 204.06 234.06C203.87 234.2 203.7 234.36 203.51 234.51L203.39 234.62C203.084 234.838 202.729 234.974 202.356 235.016C201.983 235.058 201.606 235.004 201.26 234.86C200.58 234.766 199.923 234.549 199.32 234.22C198.62 233.85 197.67 233.13 197.67 232.22C197.497 231.867 197.427 231.472 197.47 231.08C197.436 230.905 197.465 230.723 197.551 230.566C197.636 230.409 197.774 230.287 197.94 230.22C198.012 230.146 198.073 230.062 198.12 229.97C198.038 229.901 197.943 229.85 197.84 229.82C197.779 229.803 197.725 229.764 197.69 229.71C197.69 229.71 194.98 231.19 196.97 230.71C197.31 230.63 197.63 231.86 196.47 231.65C196.15 231.65 195.89 232.32 195.69 232.45C194.88 232.96 195.56 230.99 195.56 230.94C195 231.15 193.79 230.66 193.89 229.94C193.76 230.27 193.02 230.94 193.02 230.07C193.02 229.43 194.32 227.07 195.09 227.34C195.09 227.05 194.28 225.57 193.95 225.57C193.187 225.646 192.438 225.821 191.72 226.09C191.86 226.71 190.51 227.09 190.14 227.22H190.07C189.6 227.34 189.53 227.42 189.52 227.46C189.78 229.01 186.2 227.67 185.81 227.67C184.69 227.67 183.27 228.23 182.21 227.76C181.134 227.909 180.106 228.306 179.21 228.92C179.355 229.048 179.479 229.196 179.58 229.36C180.31 230.42 180.39 231.86 180.82 233.05C180.889 233.199 180.946 233.353 180.99 233.51C181.18 233.95 181.37 234.38 181.55 234.82C181.593 234.87 181.614 234.935 181.61 235" fill="white"/>
<path d="M269.53 79.5802C268.69 80.1602 267.39 80.1502 267.33 81.4802C267.33 81.9302 267.59 84.9002 268.48 83.6602C269.02 82.9002 270.21 79.7202 269.48 79.5802H269.53ZM346.88 34.0102L347.5 33.7902C347.2 33.6702 344.9 32.7902 344.65 33.3002C345.375 33.5923 346.12 33.8296 346.88 34.0102ZM297.88 9.22021C298.65 9.92021 299.51 10.9202 300.54 9.97021C301.57 9.02021 300.79 8.10021 300.08 7.39021C298.53 5.85021 296.89 7.78021 297.88 9.22021ZM295.26 2.45021C295.144 3.7609 295.354 5.07985 295.87 6.29021C296.25 5.22021 296.87 3.12021 296.48 2.01021C295.901 1.8045 295.342 1.54678 294.81 1.24021C294.965 1.81854 295.082 2.40648 295.16 3.00021C295.19 2.81809 295.21 2.63449 295.22 2.45021H295.26ZM379.77 52.4502C378.22 51.9702 377.67 52.6802 376.31 53.1502C375.6 53.4002 375.24 54.1502 374.67 54.5302C373.81 55.1702 374.96 55.4002 374.56 56.0502C373.48 55.1302 371.77 55.6902 370.83 54.5402C371.73 54.2202 369.51 54.0802 370.07 53.3702C370.45 52.9102 371.81 54.3102 372.4 54.2102C370.14 52.4502 370.4 49.5702 369.16 47.2102C368.3 45.5602 366.06 44.0002 367 42.0002C367.48 41.0002 367.28 40.0002 367.78 38.9202C368.36 37.6902 369.71 36.7702 370.07 35.4402C370.75 32.9302 372.21 31.7202 371.41 29.0002C370.97 28.9202 369.57 31.3202 369.41 31.6802C368.71 33.2202 366.69 33.8602 365.66 35.1802C364.678 36.532 363.566 37.7846 362.34 38.9202C361.16 39.9202 359.29 39.4202 357.92 39.2902C354.57 38.9602 353.3 37.8002 352.44 34.8302C352.1 33.6502 351.13 36.3802 351.03 36.5302C350.968 36.6244 350.886 36.7043 350.791 36.7644C350.695 36.8244 350.588 36.8634 350.476 36.8785C350.365 36.8937 350.251 36.8847 350.143 36.8522C350.035 36.8198 349.935 36.7645 349.85 36.6902C349.31 36.0502 350.62 35.1902 350.85 34.8502C349.35 33.4202 348.14 34.6002 346.73 34.9902C345.67 35.2902 343.8 34.3102 343.06 34.6702C342.82 33.6702 342.6 33.7402 342.22 32.9902C342.61 32.5502 343.44 32.9302 343.91 32.9902C343.91 32.5402 339.36 30.9902 338.63 30.5502C337 29.6402 336.08 28.0802 334.63 26.9502C331.296 24.5008 328.335 21.5803 325.84 18.2802C322.97 14.2802 320.59 10.1902 317.35 6.40021C315.79 4.58021 314.08 3.03021 312.57 1.17021C312.11 0.62021 311.19 -0.82979 310.7 0.80021C310.616 1.30856 310.362 1.77308 309.978 2.11681C309.594 2.46054 309.104 2.66285 308.59 2.69021C307.89 2.84021 307.31 3.15021 307.19 2.25021C307.02 1.00021 306.35 2.77021 306.43 3.25021C306.79 5.42021 304.74 6.74021 305.54 8.96021C307.25 13.7002 309.54 17.5702 309.06 22.8602C308.726 25.216 308.032 27.5062 307 29.6502C306.11 31.8802 307.31 34.6502 306.94 37.0602C306.84 38.0635 306.47 39.021 305.87 39.831C305.27 40.6409 304.461 41.2731 303.53 41.6602C300.53 42.7302 301.27 45.1702 302.08 47.6002C301.16 49.0102 301.94 49.6602 302.61 50.8802C303.28 52.1002 302.79 53.8802 302.03 55.0602C301.27 56.2402 299.92 57.9002 298.47 58.0602C297.58 58.1702 294.71 57.4802 295.6 56.1402C295.03 55.6702 292.85 56.8202 292.1 56.8502C291.35 56.8802 289.65 55.5102 289.1 54.9502C288.285 54.023 287.318 53.2418 286.24 52.6402C286.57 52.8102 284.01 53.7902 284.01 53.8002C281.76 55.5302 285.76 58.6602 286.46 60.0902C287.16 61.5202 286.53 61.8002 285.52 62.6402C284.269 63.6711 283.377 65.0712 282.97 66.6402C282.6 68.4302 281.39 64.7302 280.29 67.0202C279 69.6802 274.6 68.3102 274.69 71.7302C274.69 73.4002 275.21 74.7302 274.23 76.3202C273.25 77.9102 273.38 79.3202 275.03 80.2602C276.21 80.9002 276.2 82.0302 277.59 82.5402C278.98 83.0502 279.29 84.6502 280.16 85.6502C279.85 86.2702 280.51 90.1202 279.16 89.8202C278.501 91.0638 277.988 92.3791 277.63 93.7402C277.11 95.3002 277.63 96.0902 278.02 97.5802C278.32 98.8502 279.11 98.7402 280.12 98.9102C282.05 99.2302 280.94 98.5502 282.26 97.5302C283.1 96.9002 284.61 97.1202 285.2 96.1502C285.79 95.1802 284.61 93.7402 285.64 92.7802C286.42 92.0402 287.88 92.1002 288.41 91.0302C288.66 90.5202 290.2 87.6602 290.5 90.0902C290.16 90.6002 289.56 91.6402 290.8 90.9702C292.04 90.3002 292.8 90.9702 293.9 91.5002C295.67 92.4002 295.99 91.1402 297.38 90.4102C298.26 89.9502 299.09 90.3502 298.07 89.1102C297.18 88.0402 296.35 88.3002 295.3 87.6902C294.25 87.0802 293.74 85.7702 292.74 85.0402C291.74 84.3102 291.47 82.9402 290.38 82.2502C289.75 81.8402 288.38 82.4902 287.8 82.6902C286.9 82.9702 286.35 82.1202 285.89 81.5202C285.25 80.6902 284.21 80.4002 283.42 79.7502C281.29 78.0002 283.56 73.7502 285.06 72.3002C286.56 70.8502 290.2 71.3002 291.44 72.8002C292.253 73.6086 292.928 74.5443 293.44 75.5702C293.57 75.9902 294.99 77.2802 294.89 77.4702H294C294.73 79.3402 296.83 75.9902 297.48 75.4702C298.93 74.3802 300.6 73.3202 302.12 72.3002C305.74 69.8602 309.41 70.1902 312.46 73.1002C313.66 74.2502 315.46 73.9702 316.52 75.2302C317.843 76.8124 319.486 78.0971 321.34 79.0002C323.18 79.8702 324.93 81.0002 326.83 81.7102C328.9 82.4902 331.13 83.3402 332.66 85.0202C333.13 85.5402 333.47 86.1802 333.98 86.6602C334.89 87.5202 334.7 85.8402 335.17 85.4402C336.43 84.3702 336.23 81.7802 336.17 80.3302C335.98 76.3302 339.54 71.1802 342.49 68.7002C344 67.4402 345.16 65.8602 346.66 64.6302C348.435 63.2795 350.441 62.2629 352.58 61.6302C354.24 61.0802 354.27 62.4202 355.68 62.9202C356.52 63.2202 357.46 62.7602 358.33 62.9202C359.41 63.0602 360.55 63.5202 361.64 63.1502C360.11 61.1502 362.64 60.1502 362.72 61.0502C362.81 62.6102 366.72 62.6202 365.5 60.5202C366.23 60.7502 367.97 60.5202 368.4 59.6802C366.87 58.6802 368.2 58.5602 369.61 58.1302C370.581 57.7667 371.586 57.502 372.61 57.3402C373.31 57.2502 374.12 57.7602 374.74 57.5402C374.39 57.3202 375.86 53.8902 376.95 54.1402C377.66 54.3002 379.86 52.5702 379.71 52.5002L379.77 52.4502Z" fill="white"/>
<path d="M141.44 267.47C141.09 267.25 140.55 267.27 140.44 267.75C140.81 267.6 141.1 267.96 141.44 268.04C142.29 268.23 141.59 267.66 141.44 267.47Z" fill="white"/>
<path d="M144.66 264.38C144.35 264.38 144.41 264.61 144.25 264.8C144.09 264.99 143.78 264.8 143.57 264.96C142.9 265.47 142.86 265.27 142.43 264.66C142.246 264.447 142.006 264.289 141.738 264.203C141.47 264.116 141.184 264.105 140.91 264.17C140.02 264.55 140.79 265.61 140.91 266.17C141.046 266.104 141.166 266.009 141.26 265.89C141.403 265.995 141.573 266.058 141.75 266.07C142.11 266.12 142.18 265.79 142.35 265.57C142.438 265.615 142.519 265.672 142.59 265.74L142.71 265.59C143.07 265.83 142.71 266.38 143.25 266.41C143.79 266.44 143.72 266.34 143.78 265.79C143.781 265.704 143.8 265.619 143.835 265.54C143.871 265.461 143.922 265.391 143.985 265.333C144.049 265.274 144.124 265.23 144.206 265.202C144.288 265.174 144.374 265.163 144.46 265.17C144.94 265.17 145.05 264.73 145.36 264.43C145.114 264.46 144.866 264.46 144.62 264.43L144.66 264.38Z" fill="white"/>
<path d="M154.39 219.57C155.14 219.85 154.24 218.69 154.81 218.64C155.04 218.64 154.98 219.06 155.13 219.17C155.7 219.59 155.6 218.78 155.64 218.5C155.68 218.22 155.96 218.17 156.15 218.04C156.69 217.66 155.64 217.63 155.42 217.65C155.2 217.67 154.7 218.26 154.49 218.44C154.248 218.634 154.027 218.851 153.83 219.09C153.998 219.271 154.186 219.432 154.39 219.57Z" fill="white"/>
<path d="M155.51 220C155.21 219.79 154.76 220.05 155 220.41C155.24 220.77 155.78 220.51 156.11 220.57C155.954 220.339 155.749 220.145 155.51 220Z" fill="white"/>
<path d="M156.15 218.7C156.125 219.126 156.125 219.554 156.15 219.98C156.45 219.68 157.29 218.84 157.15 218.35C156.92 217.68 156.33 218.43 156.22 218.7H156.15Z" fill="white"/>
<path d="M156.71 218L156.36 217.79V218.09C156.48 218.075 156.598 218.045 156.71 218Z" fill="white"/>
<path d="M158.28 216.05C158.716 216.465 159.249 216.764 159.83 216.92C160.07 216.99 160.4 217.13 160.61 216.92C160.645 216.871 160.668 216.814 160.678 216.754C160.688 216.695 160.685 216.633 160.669 216.575C160.653 216.517 160.624 216.463 160.584 216.417C160.545 216.371 160.495 216.335 160.44 216.31C160.83 215.71 160.97 216.56 161.3 216.12C161.396 215.917 161.446 215.695 161.446 215.47C161.446 215.245 161.396 215.023 161.3 214.82C161.13 214.29 160.82 214.22 160.47 213.82C160.34 213.67 160.37 213.5 160.16 213.42C159.95 213.34 159.74 213.3 159.79 213.01C159.24 213.39 158.45 213.66 158.17 214.32C158.03 214.68 157.66 215.87 158.23 216.05H158.28Z" fill="white"/>
<path d="M153.33 257.26C153.15 257.59 151.51 258.03 152.09 258.56C152.94 259.33 153.75 257.87 153.46 257.12L153.33 257.26Z" fill="white"/>
<path d="M150.13 259C149.35 258.83 148.98 259.27 149.87 259.5C149.96 259.5 150.17 259.76 150.2 259.76C150.71 259.69 150.47 259.1 150.13 259Z" fill="white"/>
<path d="M146.84 260.83C146.78 260.46 146.6 259.9 146.77 259.71C146.94 259.52 146.33 259.39 146.2 259.46C145.74 259.72 146.07 259.99 146.04 260.35C146.01 260.71 145.4 260.98 145.15 261.26C145.445 261.39 145.772 261.431 146.09 261.38C146.4 261.38 146.6 261.53 146.89 261.56C147.35 261.62 147.39 260.9 147.3 260.61L146.84 260.83Z" fill="white"/>
<path d="M142.35 258C142.58 257.8 143.18 257.42 143.22 257.1C143.26 256.78 142.89 256.66 142.61 256.84C142.33 257.02 141.61 258.52 142.35 258Z" fill="white"/>
<path d="M181 235.34C180.39 233.56 179.39 229.8 179.06 229.79C178.93 229.79 178.92 229.36 178.72 229.39C178.464 229.491 178.194 229.551 177.92 229.57H177.75H177.64C176.62 230.409 175.341 230.869 174.02 230.87L173.28 230.98H173.16C172.75 231.04 172.59 230.63 172.16 230.72C170.752 231.145 169.29 231.364 167.82 231.37C166.66 231.37 165.58 230.76 164.41 230.8C163.24 230.84 162.86 232.05 161.79 232.32C160.72 232.59 157.9 230.82 159.42 229.9C158.19 230.42 156.24 228.76 155.67 230.09L155.62 230.19C155.09 231.32 152.49 231.46 151.45 231.67C150.41 231.88 150.99 232.04 150.54 232.31C149.93 232.66 149.19 232.53 148.54 232.73C150.81 234.6 147.26 236.4 145.87 237.26C145.021 237.929 144.308 238.754 143.77 239.69C143.064 240.457 142.244 241.111 141.34 241.63C140.52 242.3 138.72 245.07 137.67 244.63L137.83 244.82C136.91 245.61 137.65 245.06 137.59 245.16C137.36 245.54 137.66 245.03 137.59 245.16C137.335 245.564 136.994 245.905 136.59 246.16C135.09 247.28 134.24 249.11 132.1 249.03C129.96 248.95 128.33 252.35 127.26 253.82C126.93 254.26 123 255.96 123.12 255.11C122.56 256.32 121.68 254.23 120.56 254.53C120.454 254.579 120.343 254.619 120.23 254.65C120.6 254.89 120.56 255.17 120.18 255.31C119.27 255.55 118.12 255.76 117.87 256.57C117.49 257.83 119.17 258.73 118.15 259.98C117.41 260.89 117.64 261.03 118.15 261.93C118.54 262.61 118 264.48 118.15 264.57C118.585 263.503 119.348 262.603 120.33 262C121.58 261.25 122.47 263.55 122.9 264.26C123.68 263.57 123.82 264.67 124.5 264.32C125.014 263.943 125.466 263.487 125.84 262.97C127.41 261.25 126.47 263.21 127.41 263.21C127.95 263.15 127.6 262.34 128.07 262.21C128.416 262.214 128.756 262.297 129.065 262.453C129.373 262.609 129.642 262.834 129.85 263.11C129.875 262.881 129.875 262.65 129.85 262.42C129.85 262.16 129.98 262.05 130.12 262.08C130.282 262.171 130.464 262.219 130.65 262.219C130.836 262.219 131.018 262.171 131.18 262.08C131.941 261.737 132.802 261.684 133.6 261.93C134.6 262.34 133.6 262.93 133.6 263.47H133.69C133.786 263.325 133.914 263.204 134.065 263.118C134.217 263.033 134.386 262.984 134.56 262.976C134.733 262.968 134.906 263.002 135.065 263.074C135.223 263.146 135.362 263.254 135.47 263.39C136.59 264.16 137.83 264.62 138.9 265.39C139.115 265.514 139.276 265.714 139.352 265.951C139.428 266.188 139.413 266.444 139.31 266.67C139.92 266.35 139.67 265.76 139.49 265.26C139.05 263.96 140.06 264.14 140.54 263.21C141.02 262.28 140.22 261.51 140.54 260.68C140.86 259.85 141.45 259.5 141.11 258.53C140.77 257.56 141.67 256.96 142.27 256.25C143.32 255.02 144.47 255.25 145.93 255.25C147.21 255.25 146.59 256.11 146.31 256.83C146.31 257.27 147.46 258.57 147.46 258.57C148.14 257.95 147.8 258.63 148.46 258.63C149.26 258.63 149.81 257.85 150.62 257.85C149.87 257.58 151.43 256.37 151.76 256.31C152.25 256.23 152.15 256.67 152.59 256.54C153.21 256.36 153.86 256.27 154.49 256.13C155.57 255.88 155.81 255.86 156.03 254.95C156.25 254.04 158.19 254.74 158.03 255.49C158.44 255.12 158.93 253.49 159.53 253.9C159.78 254.09 160.68 255.41 160.38 255.73C161.49 254.97 161.38 253.22 162.64 252.73C163.24 252.49 164.71 252.32 164 253.41C164.94 252.93 165.92 252.41 166.81 251.81C167.76 251.53 168.36 252.24 168.81 253.01C168.869 253.152 168.95 253.284 169.05 253.4V253.32C168.95 252.71 171.05 253.57 171.42 252.89C171.56 252.61 173.12 250.99 173.02 250.79C173.02 250.79 171.38 251.26 171.22 251.27C170.15 251.34 171.28 250.03 171.81 249.94C172.81 249.77 173.81 250.65 174.81 250.22C175.95 249.72 174.62 250.03 175.07 249.44C175.52 248.85 176.07 248.79 176.46 248.35C176.08 248.35 175.87 248.16 175.82 247.86C176.39 247.14 178.82 248.34 177.42 246.54C176.36 245.17 176.61 243.75 176.85 242.09C177.09 240.43 179.35 239.67 179.2 238.09C179.01 235.95 181.12 237.55 181.12 235.38" fill="white"/>
<path d="M157.79 256.12C157.732 256.084 157.689 256.027 157.67 255.96C157.655 255.915 157.655 255.866 157.67 255.82L157.55 255.88L157.42 255.95C157.42 256 157.42 256.06 157.37 256.13C157.32 256.2 157.21 256.73 156.73 256.73C156.688 256.73 156.647 256.721 156.609 256.703C156.572 256.686 156.538 256.661 156.51 256.63C156.483 256.599 156.464 256.562 156.455 256.522C156.446 256.482 156.448 256.44 156.46 256.4C156.48 256.331 156.497 256.261 156.51 256.19C156.302 256.428 156.188 256.734 156.19 257.05C156.19 257.11 156.19 257.43 156.31 257.43C156.448 257.407 156.576 257.345 156.68 257.25C156.868 257.122 157.045 256.978 157.21 256.82C157.296 256.737 157.411 256.69 157.53 256.69C157.659 256.695 157.784 256.736 157.89 256.81L158 256.87C158.036 256.88 158.074 256.88 158.11 256.87C158.123 256.825 158.123 256.776 158.11 256.73C158.071 256.498 157.959 256.284 157.79 256.12Z" fill="white"/>
<path d="M138.58 285.26C138.33 285.2 137.34 285.26 137.34 285.26C137.281 285.309 137.207 285.336 137.13 285.336C137.053 285.336 136.979 285.309 136.92 285.26C136.836 285.2 136.733 285.172 136.63 285.18C136.29 285.23 135.38 284.61 135.42 284.18C135.57 282.74 137.75 283.43 137.09 282.18C136.85 283.59 136.39 282.12 136.09 282.18C135.79 282.24 135.16 282.91 134.8 282.42C134.65 282.22 135.44 281.56 135.58 281.42C134.92 281.06 134.48 281.72 133.79 281.37C134.35 280.37 134.87 279.43 135.43 278.47C135.31 278.47 131.85 278.81 131.87 278.72C130.5 278.09 128.37 279.72 128.38 277.12C128.38 275.5 130.05 277.54 130.74 276.12C130.86 275.88 130.49 275.25 131.02 275.28C131.75 275.28 131.82 275.77 132.2 274.86C132.74 273.59 132.7 270.47 130.94 270.01L130.59 270.06L130.24 269.86C128.24 269.26 128.36 271.02 127 271.7C125.64 272.38 125 271.62 123.9 271.4C121.33 270.88 119.43 270.17 119.7 267C118.35 267.61 119.46 266 119.31 265.72C119.6 265.72 120.52 263.13 119.02 264.12C118.61 264.39 118.41 265.48 117.88 265.42C117.35 265.36 117.2 264.25 116.44 264.75L116.56 264.34C115.62 264.2 114.18 264.24 113.66 265.06C112.695 265.553 111.664 265.906 110.6 266.11C110.53 266.33 109.86 267.22 109.89 267.36C110.06 268.07 110.51 268.17 109.89 268.95C109.517 269.403 109.05 269.768 108.52 270.02C107.69 270.42 107.76 269.64 107.19 269.63C106.62 269.62 108.19 270.63 108.04 270.55C108.39 270.76 108.78 270.15 109.04 270.03C109.67 271.37 107.94 271.55 107.13 272.03C106.55 271.72 106.36 270.43 105.69 270.12C105.62 270.75 103.69 271.67 103.69 272.12C103.8 272.85 104.69 272.62 105.07 272.62C104.83 273.72 103.23 273.01 102.85 273.95C102.47 274.89 101.6 275.14 101.36 273.95C101.15 274.36 101.01 273.85 101.21 273.53C101.73 272.7 99.67 272.85 99.44 272.53C99.57 273.05 98.95 273.41 99.24 273.94C99.39 274.22 99.78 274.52 99.72 274.94C99.87 274.03 97.24 273.94 98.72 275.17C100.2 276.4 99.02 276.63 99.37 278.27C98.51 277.97 98.92 276.95 97.95 276.65C97.4673 276.685 96.9827 276.685 96.5 276.65C96.34 276.376 96.2506 276.067 96.24 275.75C95.74 276.49 94.81 276.09 94.72 276.21C94.25 276.86 94.6 277.44 94.78 278.09C94.78 278.23 94.11 278.82 94.14 279.21C94.14 279.07 97.46 281.47 96.05 281.44C96.05 281.61 96.05 281.79 96.12 281.97C96.1476 281.911 96.187 281.858 96.2356 281.815C96.2842 281.772 96.3411 281.739 96.4028 281.718C96.4645 281.698 96.5298 281.69 96.5947 281.696C96.6595 281.701 96.7226 281.72 96.78 281.75C96.9121 281.413 96.9467 281.046 96.88 280.69C97.22 280.69 97.1 281.3 97.21 281.53C97.21 281.47 97.7 280.93 97.75 281.27C97.8 281.61 97.52 281.98 97.29 281.96C97.64 283.09 99.01 282.29 98.88 283.18C99.5 283.18 101.47 282.73 101.03 284.34C100.65 285.72 101.12 286.22 102.03 287.34C101.42 287.63 100.45 286.89 99.92 286.71C99.78 287.04 99.48 287.21 99.26 287.48C99.0092 287.177 98.7081 286.92 98.37 286.72C98.79 286.48 98.26 285.62 98.23 285.2C98.52 285.2 98.48 285.71 98.58 285.89C98.7385 285.662 98.8355 285.396 98.8617 285.12C98.888 284.843 98.8427 284.564 98.73 284.31C98.21 283.45 97.96 284.03 97.44 284.31C97.3 284.09 97.89 282.51 97.32 283.16C97.57 281.96 96.2 282.16 95.9 283.44C95.6 284.72 95.48 284.92 96.07 286.02C96.29 286.43 96.76 288.39 97.53 288.02C98.1 287.76 98.94 289.46 98.88 289.89L99.5 289.84C99.4192 290.087 99.2701 290.305 99.07 290.47C98.76 289.75 98.2 291.04 98.71 290.69C99.2 291.58 97.11 292.69 97.42 293.08C97.5093 292.976 97.6334 292.907 97.7694 292.887C97.9054 292.866 98.0441 292.896 98.16 292.97C98.31 292.27 99.62 291.59 100.09 291.11C100.56 290.63 100.83 289.25 101.25 289C101.52 289.86 104.12 288.08 105.1 288.43C106.08 288.78 105.43 291.09 104.22 290.68C104.22 291.2 105.22 292.23 104.89 292.57C105.28 292.67 106.5 292.07 106.55 291.63C106.6 291.19 107.73 291.35 108.07 290.93C108.242 290.434 108.376 289.926 108.47 289.41C108.571 289.116 108.605 288.803 108.567 288.495C108.53 288.186 108.423 287.89 108.254 287.629C108.086 287.368 107.86 287.149 107.594 286.988C107.328 286.827 107.029 286.729 106.72 286.7C106.11 286.7 105.72 287.27 105.18 287.37C104.64 287.47 104.36 286.84 103.82 286.69C104.06 286.57 104.3 286.44 104.53 286.3L104.85 286L105.29 285.87C106.91 284.5 104.29 282.99 104.21 281.58C105.45 282.43 105.62 279.41 106.78 280.7C107.7 281.7 109.26 281.34 109.5 283.16C109.81 285.39 109.68 285.63 111.43 287.16C111.88 287.55 113.11 288.21 112.53 288.98C111.95 289.75 112.95 289.71 112.97 290.28C112.19 290.28 110.13 291.28 109.84 291.99C110.37 292.48 113.01 291.43 113.71 291.42C113.03 293.12 111.87 292.68 112.49 294.42C111.36 294.42 112.12 295.02 111.97 295.7C111.78 296.1 111.491 296.444 111.13 296.7C110.78 297.12 111.2 297.7 110.81 298.06C110.755 297.959 110.676 297.872 110.58 297.808C110.484 297.744 110.375 297.703 110.26 297.69C109.986 298.257 109.743 298.838 109.53 299.43C109.12 300.23 108.42 300.81 108 301.63C107.07 303.47 106.4 301.39 105.13 302.89C105.75 303.52 105.36 303.94 105.02 304.56C104.89 304.8 105.71 305.63 105.76 305.84C106.05 307.07 105.15 307.54 106.1 308.53C105.31 308.15 104.55 308.72 105.19 309.62C105.576 309.944 105.991 310.232 106.43 310.48C106.868 311.01 107.275 311.564 107.65 312.14C107.824 312.846 107.865 313.579 107.77 314.3C107.58 315.71 106.67 316.39 105.98 317.53C105.29 317.01 104.98 316.48 104.06 316.97C104.61 317.27 105.76 317.91 105.6 318.68L105.13 318.62C105.63 319.03 105.4 319.78 105.9 320.19C106.4 320.6 108.27 320.19 108.83 320.19C109.9 320.19 110.69 320.31 110.99 321.46C111.29 322.61 111.93 321.46 112.27 322.14C112.56 321.71 114.27 320.65 113.57 319.77C113.468 319.709 113.345 319.691 113.23 319.72C111.91 319.78 111.12 316.63 111.17 315.72C111.435 314.054 112.07 312.468 113.03 311.08C113.81 309.95 116.42 310.76 116.14 312.25C116 313.05 114.81 314.86 114.66 313.13C114.55 311.93 111.84 313.13 112.47 313.62C112.8 313.89 114.28 313.96 114.27 314.49C114.27 315.49 114.19 315.68 114.92 316.49C115.403 316.974 115.748 317.578 115.92 318.24C116.13 319.17 114.99 320.72 115.31 321.37C115.87 322.42 113.61 324.1 113.53 325.29C113.89 325.29 115.14 324.4 115.44 324.17C116.26 323.53 117.3 323.5 118.2 323.05C119.1 322.6 119.2 321.74 119.72 320.86C119.835 320.796 119.962 320.758 120.094 320.748C120.225 320.737 120.356 320.755 120.48 320.8C121.05 320.71 121.48 319.99 121.86 319.65C121.66 319.29 121.15 319.82 120.86 319.65C121.15 318.65 121.77 318.82 120.38 318.37C119.28 318.01 120.17 316.83 120.68 316.37C121.034 316.073 121.471 315.894 121.932 315.856C122.392 315.818 122.853 315.925 123.25 316.16C124.56 316.78 123.42 317.79 125.25 317.46V317.83C125.75 317.96 128.05 309.77 128.25 309.09C126.13 308.31 128.83 303.09 129.11 301.6C129.48 299.7 130.04 297.3 131.64 296.18C131.43 295.85 130.92 295.49 131.12 295.04C133.62 295.28 131.19 294.37 131.59 293.6C132.1 292.6 133.83 291.65 133.97 290.35C134.073 290.388 134.167 290.447 134.246 290.522C134.325 290.598 134.388 290.689 134.43 290.79C134.93 290.44 134.67 289.3 135 288.79C135 288.79 137.66 288.39 137.11 287.79C136.851 287.72 136.579 287.72 136.32 287.79C136.57 287.54 136.81 287.27 137.04 287C136.933 286.806 136.855 286.597 136.81 286.38C136.986 286.082 137.249 285.847 137.564 285.705C137.88 285.564 138.231 285.523 138.57 285.59C138.575 285.52 138.575 285.45 138.57 285.38L138.58 285.26Z" fill="white"/>
<path d="M85 286.16C84.89 285.39 83.82 285.35 84.44 286.36C84.2668 286.277 84.0809 286.223 83.89 286.2C83.82 287.2 84.89 286.67 84.83 287.2C85.19 287.07 85.06 286.39 85 286.12V286.16Z" fill="white"/>
<path d="M96.36 268.15L95.83 267.9C95.8291 268.126 95.8914 268.348 96.01 268.54C96.29 268.21 96.33 268.46 96.35 268.73C96.37 269 96.86 269.39 97.14 269.48C97.04 268.19 98.14 269.09 98.42 268.41C98.59 268.05 97.82 267.69 98.42 267.61C97.58 267.33 98.27 266.79 97.86 266.39C97.45 265.99 96.86 266.23 96.52 265.83C96.52 266.26 96.13 266.58 96.34 267.01C96.2141 267.03 96.0859 267.03 95.96 267.01C95.9393 267.235 95.9597 267.462 96.02 267.68C96.14 267.9 96.48 267.91 96.49 268.2H96.31L96.36 268.15Z" fill="white"/>
<path d="M83.65 286.7L83.54 286.57C83.54 287.02 83.08 286.77 83.24 287.2C83.06 287.11 82.24 286.44 82.42 287.08C82.7 286.97 82.99 287.38 83.11 287.57C83.1249 287.66 83.1249 287.751 83.11 287.84C83.24 288.01 83.43 287.84 83.44 288.15C83.74 288.01 83.71 286.95 83.66 286.7H83.65Z" fill="white"/>
<path d="M86.26 282.35C85.58 282.48 86.26 283.71 85.66 283.68C85.66 283.51 85.66 283.33 85.66 283.16C85.24 283.16 85.19 283.89 85.28 284.16C85.37 284.43 85.14 284.99 84.87 284.44C84.65 284.61 84.29 284.73 84.16 285C84.03 285.27 84.98 285.37 85.16 285.54C85.66 286.12 85.01 287.02 85.37 287.66C85.73 288.3 85.6 287.28 85.62 287.19C85.7 286.95 85.8 286.94 86.02 286.99C86.42 287.07 86.28 286.63 86.25 286.35C86.09 285.12 88.18 285.16 87.52 283.92C87.28 284.03 86.62 284.55 86.36 284.27C85.95 283.8 86.51 282.69 86.62 282.19" fill="white"/>
<path d="M82.71 287.86C82.64 287.79 82.21 287.38 82.1 287.5C81.99 287.62 82.27 288.13 82.26 288.27C82.08 288.06 82.09 287.47 81.69 287.53C81.45 287.53 81.56 288.31 81.59 288.46C81.78 289.53 83.29 288.62 82.71 287.86Z" fill="white"/>
<path d="M89.25 255.59L89.5 255.85C89.79 255.62 89.5 255.22 89.91 254.99C89.8181 255.274 89.7907 255.575 89.83 255.87C90.11 255.87 90.22 255.34 90.48 255.52C90.74 255.7 90.54 256.03 90.48 256.2C90.3798 256.12 90.2531 256.081 90.1252 256.09C89.9974 256.1 89.8777 256.157 89.79 256.25C90.37 257 90.86 256.75 91.35 256.09C91.71 255.6 91.43 255.83 91.26 255.39C91.09 254.95 91.38 254.75 91.33 254.39C91.2709 254.502 91.1871 254.599 91.0848 254.674C90.9826 254.748 90.8646 254.798 90.74 254.82C90.74 254.56 90.87 254.42 91.03 254.25C91.19 254.08 91.13 253.81 91.1 253.57C91.04 253.16 91.63 252.75 91.89 252.52C92.2745 252.232 92.5371 251.811 92.626 251.339C92.7148 250.867 92.6235 250.378 92.37 249.97C92.53 249.97 92.82 250.09 92.9 249.87C92.98 249.65 93.04 249.29 92.66 249.26C92.7517 249.199 92.823 249.112 92.8647 249.011C92.9064 248.909 92.9166 248.797 92.894 248.689C92.8713 248.581 92.817 248.483 92.7378 248.407C92.6587 248.33 92.5584 248.279 92.45 248.26C92.22 248.26 91.56 248.39 91.9 248.73C91.44 248.73 91.42 249.3 91.02 249.38C90.62 249.46 90.27 249.17 90.07 249.56C89.87 249.95 89.38 250.88 89.53 251.31C89.82 251.13 89.93 251.31 90.09 251.55C90.25 251.79 89.89 251.92 89.78 252.07C89.55 252.39 89.16 253.15 89.35 253.55C89.453 253.533 89.5511 253.494 89.6374 253.435C89.7238 253.377 89.7963 253.3 89.85 253.21C89.92 253.52 89.59 253.72 89.38 253.71C89.17 253.7 89.19 254.14 89.2 254.29C89.21 254.44 89.31 254.91 89.2 255.12C89.09 255.33 88.54 255.17 88.49 255.56C88.7335 255.66 89.0065 255.66 89.25 255.56V255.59Z" fill="white"/>
<path d="M90.5 257.24C90.7 256.83 89.94 256.73 89.96 257.24C89.56 256.98 89.87 256.24 89.2 256.33C89.4067 256.61 89.3667 256.72 89.08 256.66C88.84 256.72 88.64 256.88 88.41 256.95C88.41 256.83 88.64 255.95 88.16 256.22C87.83 256.42 87.84 257.07 87.82 257.39C87.6452 258.55 87.535 259.718 87.49 260.89C87.84 260.59 88.21 260.94 88.35 261.27C88.71 260.92 89.27 260.73 89.42 260.19C89.57 259.65 89.93 259.03 89.7 258.53C90.5 258.53 89.76 257.43 90.5 257.27V257.24Z" fill="white"/>
<path d="M82.34 290.86C82.12 290.7 81.77 290.53 81.7 290.24C81.63 289.95 81.89 289.71 81.84 289.43C81.79 289.15 81.53 289.05 81.23 288.97C80.93 288.89 81.15 288.37 81.11 288.24C80.75 288.45 80.49 288.79 80.11 289.01C79.73 289.23 79.45 289.19 79.18 289.41C79.1173 289.146 79.0017 288.898 78.84 288.68C78.57 288.41 78.06 288.8 78.2 289.13C78.34 289.46 78.2 289.84 78.32 290.19C78.5 290.72 78.19 291.19 78.11 291.66C78.11 291.42 78.02 291.19 77.99 290.94C77.66 291.08 77.52 291.59 77.46 291.94C77.4 292.29 78.09 292.44 78.35 292.61C78.61 292.15 79.77 292.18 80.05 292.61C80.14 292.74 80.31 293.09 80.52 293.01C80.5893 292.975 80.6507 292.925 80.7006 292.865C80.7504 292.805 80.7876 292.736 80.81 292.661C80.8324 292.587 80.8396 292.508 80.831 292.431C80.8224 292.353 80.7982 292.278 80.76 292.21C80.14 291.34 81.27 291.26 81.25 291.74C81.99 291.55 83.11 291.82 82.32 290.92L82.34 290.86Z" fill="white"/>
<path d="M91.72 280.36C92.23 280 93.02 279.48 93.18 278.83C93.18 278.68 93.18 278.28 93.34 278.19C93.5583 277.976 93.7558 277.742 93.93 277.49L93.74 277.32C93.9819 277.092 94.1558 276.801 94.2423 276.48C94.3288 276.158 94.3245 275.82 94.23 275.5C93.86 275.58 93.35 275.89 93.94 276.15C93.8585 276.241 93.7642 276.318 93.66 276.38C93.6382 276.319 93.6038 276.262 93.5591 276.214C93.5143 276.165 93.4602 276.127 93.4 276.1C93.21 276.5 93.11 276.62 92.66 276.71C92.41 276.76 92.29 276.81 92.25 277.08C92.248 277.38 92.176 277.674 92.04 277.94C91.7 278.38 91.46 278.56 91.79 279.13C91.48 279.02 91.03 279.2 91.11 279.6C91.19 280 91.77 279.851 91.5 280.201" fill="white"/>
<path d="M105.74 299.31C105.67 299.88 106.55 299.2 106.65 299C106.89 298.52 105.76 298.52 105.74 299.31Z" fill="white"/>
<path d="M110 292.17C109.78 291.85 109.45 292.12 109.36 292.1C109.02 292.39 109.12 293.5 109.55 293.69C109.46 293.42 109.77 293.41 109.9 293.25C110.03 293.09 109.82 292.51 110 292.17Z" fill="white"/>
<path d="M108.77 294.27C108.65 293.64 107.93 294.14 107.61 294.27C107.294 294.387 107 294.556 106.74 294.77C106.49 294.99 106.22 295.11 105.99 295.3C105.919 295.401 105.871 295.516 105.849 295.637C105.828 295.758 105.833 295.882 105.866 296.001C105.898 296.12 105.957 296.23 106.037 296.323C106.117 296.416 106.217 296.491 106.33 296.54C106.95 296.63 107.66 296.13 108.25 296.01C108.39 296.34 108.25 296.7 108.4 297.01C109.17 296.34 109.14 295.35 109.75 294.61C109.9 294.42 110.62 293.86 109.88 293.91C109.5 293.91 109.15 294.27 108.77 294.22V294.27Z" fill="white"/>
<path d="M104.38 301.72C104.15 302.14 104.74 302.88 105.03 302.34C105.23 301.96 105.72 300.96 105.16 300.68C104.93 300.56 104.24 300.22 104.03 300.52C103.82 300.82 104.13 301.52 104.38 301.72Z" fill="white"/>
<path d="M104.38 299.33C104.455 299.022 104.58 298.728 104.75 298.46C104.98 298.19 105.37 298.21 105.56 297.87C105.7 297.469 105.7 297.032 105.56 296.63C105.5 296.12 105.56 295.63 105.56 295.09C105.56 294.55 105.34 293.45 104.56 293.51C104.061 293.571 103.58 293.738 103.15 294C102.76 294.22 102.53 293.75 102.15 293.78C102.44 294.26 102.75 294.71 102.45 295.28C102.32 295.52 102.15 295.73 102.03 295.97C101.91 296.21 102.1 296.49 102.03 296.77C101.96 297.05 101.71 297.08 101.68 297.35C101.669 297.667 101.753 297.981 101.92 298.25C102.04 298.47 102.97 298.48 103.23 298.47C102.86 299.1 101.3 298.74 101.37 299.9C101.64 299.65 102.03 299.9 102.27 299.6C102.116 300.006 102.034 300.436 102.03 300.87C102.53 300.85 103.005 300.643 103.36 300.29C103.58 300.13 103.69 299.86 103.88 299.67C104.06 299.542 104.251 299.428 104.45 299.33H104.38Z" fill="white"/>
<path d="M121.14 329.72C120.838 329.402 120.672 328.979 120.68 328.54C119.8 328.54 119.82 329.8 119.68 330.3C119.54 330.8 118.68 331.35 118.56 331.96C118.48 332.29 118.73 332.68 118.75 333.01C118.775 333.456 118.693 333.902 118.51 334.31C118.354 334.717 118.127 335.092 117.84 335.42C117.56 335.74 117.43 336.32 117.02 336.07C116.92 336.48 117.25 336.82 117.21 337.23C117.21 337.47 117 338.01 117.16 338.23C117.32 338.45 117.47 338.88 117.66 338.47C117.814 338.283 118.017 338.142 118.247 338.064C118.477 337.987 118.724 337.975 118.96 338.03C118.96 337.68 119.29 337.59 119.14 337.24C119.043 336.79 119.016 336.328 119.06 335.87C119.23 335.2 119.43 334.53 120.06 334.37C120.44 334.27 120.06 333.8 120.3 333.6C120.75 333.17 120.4 332.71 120.52 332.17C120.64 331.63 120.98 331.49 120.89 331.02C120.8 330.55 120.64 329.96 121.12 329.71L121.14 329.72Z" fill="white"/>
<path d="M112.56 337.24C112.253 336.988 111.917 336.774 111.56 336.6C111.2 336.41 110.98 336.1 110.66 336.25C110.34 336.4 110.36 336.25 110.1 336.66C109.933 336.921 109.745 337.168 109.54 337.4C109.18 337.76 108.62 337.26 108.68 337.98C108.808 338.852 109.118 339.686 109.59 340.43C110.46 341.81 112.37 340.71 113.19 339.93C113.614 339.448 113.854 338.832 113.87 338.19C113.95 337.58 113 337.36 112.57 337.24H112.56Z" fill="white"/>
<path d="M144.9 283.17C145.039 283.162 145.178 283.193 145.3 283.261C145.422 283.328 145.522 283.428 145.59 283.55C145.715 283.731 145.826 283.921 145.92 284.12C146 284.36 145.72 284.47 145.69 284.68C145.714 284.832 145.747 284.982 145.79 285.13C145.79 285.34 145.41 285.32 145.49 285.57C145.62 286.03 146.09 286.63 146.6 286.25C146.47 286.16 146.01 285.65 146.41 285.53C146.81 285.41 146.94 285.68 147.2 285.68C147.132 285.577 147.055 285.48 146.97 285.39C147.43 285.5 147.71 285.94 148.17 286.03C148.651 286.056 149.134 286.033 149.61 285.96C149.45 287.13 147.61 287.89 148.18 289.24C148.501 288.919 148.896 288.682 149.33 288.55C149.92 288.38 150.2 289.12 150.64 289.35C150.844 289.453 151.076 289.49 151.302 289.454C151.529 289.418 151.738 289.312 151.9 289.15C152.19 288.91 152.54 288.7 152.63 289.23C153.11 288.16 153.82 289.07 154.23 289.64C154.64 290.21 155.55 289.85 154.97 289.08C154.53 288.48 153.97 288.19 153.97 287.41C153.97 286.63 154.74 287.11 154.88 286.27C155.02 285.43 154.32 284.27 155.26 283.49C155.94 282.92 156.38 284.26 156.48 283.08C156.48 282.72 157.3 281.81 157.54 281.43C157.66 281.26 158.33 280.26 158.43 280.93C158.532 280.889 158.627 280.832 158.71 280.76C158.17 280.24 159.41 279.3 159.43 278.65C159.45 278 159.04 277.56 159.43 276.9C159.62 276.58 160.79 275.9 160.43 276.74C160.76 276.5 160.87 276.03 161.31 275.95C161.75 275.87 162.21 275.95 162.55 275.62C162.89 275.29 162.6 275.13 162.77 274.85C162.994 274.563 163.301 274.354 163.65 274.25C164.567 273.721 165.549 273.311 166.57 273.03C167.401 272.938 168.242 273.076 169 273.43C169.62 273.59 170.9 273.43 171.22 274.06C171.333 274.453 171.563 274.802 171.88 275.06C172.2 275.26 172.7 275.26 172.88 275.63C173.02 275.962 173.191 276.28 173.39 276.58C173.55 276.79 174.25 277.38 174.21 277.64C174.12 278.27 174.48 277.81 174.81 278.02C175.14 278.23 175.25 278.83 175.42 279.18C175.92 278.86 175.83 277.76 175.92 277.25C176.071 276.023 176.426 274.83 176.97 273.72C177.19 273.36 177.54 273.14 177.77 272.79C177.87 272.64 177.77 272.19 177.97 272.12C178.33 271.98 179.57 271.23 178.92 270.81C179.56 270.29 180.42 270.02 181.11 269.55C181.42 269.35 181.73 269.21 181.88 268.86C182.03 268.51 182.32 268.86 182.46 268.51C182.53 268.35 182.46 268.17 182.66 268.11C183.05 268.01 182.89 267.83 183.15 267.72C183.41 267.61 183.81 267.65 184.15 267.38C184.49 267.11 185.05 266.89 185.49 266.62C185.23 266.39 184.69 266.71 184.41 266.77C184.41 266.44 184.85 266.63 184.89 266.35C184.49 266.35 184 266.51 183.65 266.24C183.83 265.93 185.35 264.57 184.42 264.36L184.52 264.16C184.067 263.86 183.717 263.427 183.52 262.92C183.38 263 183.09 263.34 182.93 263.1C182.851 262.921 182.81 262.726 182.81 262.53C182.81 262.334 182.851 262.14 182.93 261.96C183.05 261.56 182.93 261.14 183.03 260.75C183.183 260.274 183.37 259.809 183.59 259.36C183.384 259.39 183.175 259.355 182.99 259.26C183.101 259.224 183.215 259.197 183.33 259.18C183.2 258.75 183.58 258.47 183.68 258.09C183.3 258.17 183.16 258.66 182.75 258.63C182.81 258.37 183.13 258.14 182.98 257.85C182.76 258.55 181.89 258.46 181.31 258.43C180.91 258.43 180.63 258.73 180.25 258.73C179.87 258.73 179.54 258.28 179.33 257.95C179.12 257.62 178.7 257.95 178.47 257.9C178.02 257.73 177.61 257.3 177.15 257.09C176.52 256.8 177.25 256.6 176.9 256.19C176.7 255.96 176.35 255.86 176.12 255.64C175.83 256.26 175.12 256.73 175.12 255.71C175.12 255.46 175.12 255.07 174.88 254.91C174.49 254.65 174.45 255.37 174.34 255.53C174.233 255.432 174.139 255.321 174.06 255.2C173.89 255.53 173.81 255.73 173.43 255.67C172.89 255.59 172.58 255.87 172.08 255.56C171.892 255.417 171.671 255.322 171.437 255.283C171.204 255.245 170.964 255.265 170.74 255.34C170.29 255.59 170.16 256.16 169.74 256.43C169.154 256.718 168.592 257.052 168.06 257.43C167.682 257.846 167.227 258.186 166.72 258.43C166.38 258.53 166.37 258.01 166.06 258.2C165.75 258.39 164.83 257.87 164.54 257.69C164.91 258.36 165.75 258.63 166.02 259.38C166.173 259.85 166.219 260.348 166.153 260.838C166.087 261.328 165.912 261.797 165.64 262.21C165.16 262.79 164.4 263.92 163.54 263.9C163.05 263.9 162.65 263.55 162.17 263.49C161.69 263.43 161.08 263.49 160.55 263.43C160.183 263.463 159.819 263.52 159.46 263.6C159.06 263.6 159.15 264.02 158.85 264.16C158.145 264.518 157.331 264.596 156.57 264.38C155.82 264.03 155.57 263 155.38 262.29C155.07 261.38 154.08 261.04 153.73 260.18C153.52 260.57 152.91 260.58 152.9 260.78C153.9 260.78 153.32 261.78 152.68 261.9C152.2 262.01 151.92 262.45 151.52 262.7C150.78 263.16 150.88 263.32 150.71 264.07C150.65 264.32 150.49 265.07 150.23 265.07C149.72 265.19 149.67 265.07 149.56 265.68C149.36 266.68 149.65 267.81 149.29 268.68C148.93 269.55 147.49 270.34 146.59 270.68C145.31 271.22 145.05 272.53 143.87 273.16C143.055 273.676 142.182 274.096 141.27 274.41C141.03 274.41 139.47 274.79 140.1 275.24C139.73 275.49 139.1 275.24 138.72 275.59C138.244 275.943 137.79 276.323 137.36 276.73C137.89 277.03 138.71 276.19 139.11 275.94C139.06 276.05 139.02 276.18 138.96 276.29C139.37 276.6 139.72 276.14 139.96 275.85C140.38 275.414 140.888 275.074 141.45 274.85C142.65 274.36 143.38 273.95 144.56 274.71C144.449 274.733 144.346 274.787 144.263 274.864C144.181 274.942 144.121 275.041 144.09 275.15H144.33C144.33 275.51 143.86 275.83 144.05 276.21C144.24 276.59 144.4 276.38 144.56 276.15C144.56 276.38 144.56 276.75 144.4 276.92C144.24 277.09 143.87 276.92 143.82 277.33C144.668 277.514 145.541 277.548 146.4 277.43C146.24 277.74 145.56 277.63 145.66 278.12C145.76 278.61 146.32 278.46 146.66 278.52C146.55 278.58 146.48 278.71 146.37 278.78C146.86 279.05 146.76 279.42 146.24 279.53C145.72 279.64 146.1 280.29 145.69 280.47C145.43 279.76 143.78 279.37 144.16 280.09C144.251 280.102 144.342 280.084 144.422 280.039C144.501 279.994 144.564 279.924 144.6 279.84C144.846 279.96 145.056 280.143 145.21 280.37C145.133 280.369 145.057 280.39 144.992 280.431C144.927 280.472 144.875 280.53 144.842 280.6C144.809 280.67 144.797 280.747 144.808 280.824C144.818 280.9 144.85 280.972 144.9 281.03C145.1 281.28 145.5 281.13 145.76 281.23C145.741 281.304 145.707 281.374 145.659 281.433C145.611 281.493 145.552 281.542 145.483 281.577C145.415 281.612 145.341 281.632 145.264 281.636C145.188 281.64 145.111 281.628 145.04 281.6C145.18 282.01 145.52 282.1 145.28 282.6C145.4 282.61 145.52 282.61 145.64 282.6C145.591 282.701 145.512 282.784 145.413 282.838C145.314 282.892 145.201 282.913 145.09 282.9" fill="white"/>
<path d="M175.11 253C175.23 253.59 175.97 253.06 176.33 253.18C176.69 253.3 176.6 253.98 176.57 254.31C177.2 254.31 177.11 253.31 177.72 253.31C178.33 253.31 177.65 253.77 177.65 253.77C177.717 253.741 177.789 253.726 177.862 253.725C177.935 253.724 178.007 253.738 178.074 253.766C178.141 253.795 178.202 253.836 178.253 253.888C178.304 253.94 178.344 254.002 178.37 254.07C178.549 253.633 178.69 253.182 178.79 252.72C178.85 252.31 178.53 251.83 178.73 251.45C178.153 251.431 177.578 251.529 177.04 251.74C176.43 251.98 176.04 252.4 175.35 252.18C175.23 252.46 175.43 252.85 175.11 253.04V253Z" fill="white"/>
<path d="M147.7 264.17C148.29 264.17 148.62 263.31 148.42 262.82C148.23 263.11 146.93 263.82 147.7 264.17Z" fill="white"/>
<path d="M154.71 258.72C155.63 258.72 155.71 258.17 155.52 257.4C155.23 256.4 154.52 257.4 154.19 257.78C154.38 257.78 154.7 257.95 154.58 258.2C154.46 258.45 154.28 258.29 154.18 258.41C153.6 259.12 154.25 258.98 154.71 258.72Z" fill="white"/>
<path d="M155.3 259.12C155.1 259.38 155.3 259.62 155.36 259.88C155.07 259.8 154.72 261.38 155.84 260.28C155.96 260.16 156.59 259.64 156.45 259.49C156.293 259.355 156.11 259.252 155.913 259.189C155.715 259.125 155.507 259.102 155.3 259.12Z" fill="white"/>
<path d="M246.43 181C247.43 181.73 249.79 180 250.43 179.44C251.07 178.88 251.27 178.44 251.64 177.53C252.137 176.757 252.454 175.882 252.57 174.97C252.06 174.92 250.44 174.81 250.4 175.45H250.25C249.88 174.78 250.48 173.86 250.72 173.24C251.068 172.408 251.323 171.539 251.48 170.65C251.56 170.17 251.67 168.79 250.78 169.57C250.24 170.05 250 170.86 249.45 171.38C248.902 171.858 248.415 172.403 248 173C247.49 173.661 247.073 174.387 246.76 175.16C246.76 175.33 246.57 177.26 246.91 177.16L248.05 176.75L248.54 177.43C248.25 177.97 247.68 178.28 247.59 178.92C247.53 179.34 247.74 179.84 247.3 180.1C246.86 180.36 245.78 180.49 246.43 181.1V181Z" fill="white"/>
<path d="M262 242.72C261.45 242.42 261.41 241.09 261.4 241.02C261.259 240.9 261.165 240.733 261.136 240.55C261.106 240.367 261.143 240.179 261.24 240.02C261.51 239.08 260.18 239.02 259.63 238.14C258.72 236.72 260.24 236.14 259.97 234.87C259.7 233.6 258.34 234.53 258.13 233.95C257.92 233.37 259.69 231.81 260.13 231.57C262.03 230.57 260.85 229.15 261.95 228.05C260.23 226.85 259.34 224.5 257.13 224.05C256.228 223.891 255.42 223.394 254.87 222.66C254.228 221.769 253.643 220.837 253.12 219.87C252.8 218.73 252.12 217.24 252.74 216.3C253.151 214.982 253.29 213.594 253.15 212.22C252.53 210.9 250.28 212.81 249.36 211.47C248.63 210.41 249.17 208.66 249.61 207.6C250.77 204.77 253.96 204.76 256.35 203.47C257.317 203 258.165 202.316 258.83 201.47C259.32 200.77 258.99 199.85 259.48 199.23C260.24 198.23 262.07 197.32 262.88 198.59C263.052 199.014 263.336 199.384 263.7 199.66C263.755 198.804 263.866 197.952 264.03 197.11C263.96 194.4 262.25 194.11 263.44 191.22C263.66 190.07 262.5 189.22 264.17 188.6C265.17 188.23 266.36 188.79 266.91 187.78C267.46 186.77 268.98 188.11 269.6 187.34C270.33 186.34 268.95 185.13 269.84 184.07C270.97 182.71 272.93 181.36 271.65 180C271.269 179.555 271.004 179.023 270.876 178.451C270.749 177.879 270.764 177.285 270.92 176.72C271.22 175.16 271.14 171.72 273.37 171.78C275.71 171.65 275.37 169.44 273.5 168.92C271.43 168.33 272.78 165.92 270.84 165.13C268.9 164.34 268.33 168.81 268.23 170.36C268.222 171.437 267.976 172.498 267.509 173.468C267.042 174.438 266.366 175.293 265.53 175.97C262.95 178.12 258.35 178.52 256.99 181.97C256.46 183.32 256.5 184.85 255.58 186.04C254.819 186.834 254.148 187.709 253.58 188.65C252.58 190.65 249.95 192.42 248.25 193.87C247.482 194.595 246.513 195.073 245.47 195.24C243.89 195.43 243.26 196.24 241.81 197.03L241.35 197.28C239.07 198.54 236.51 199.04 234.05 199.82C231.59 200.6 232.6 204.15 229.67 204.3C228.18 204.37 225.29 203.77 224.82 202.04C224.35 200.31 226.43 198.76 225.63 196.84C224.84 198.1 221.44 197.27 222.84 196.01C222.857 195.945 222.857 195.876 222.84 195.81C221.73 195.81 223.76 193.24 224.46 193.4C224.29 193.4 225.24 195.45 225.85 193.63C226.29 191.63 228.85 192.82 229.31 191.14C226.75 190.38 230.86 188.87 230.94 188.58C230.03 187.87 231.2 186.84 229.34 187.44C227.694 187.995 226.13 188.769 224.69 189.74C223.4 190.58 220.61 189.68 220.47 191.92C220.4 192.92 219.15 194.48 219.37 195.41C219.58 194.46 220.24 196.49 220.24 196.78C220.01 198.32 221.29 200.01 220.97 201.85C220.52 203.567 219.713 205.168 218.6 206.55C216.25 209.93 213.67 213.48 209.82 215.24C210.41 217.51 204.89 220.63 207.67 223.04C209.02 224.21 209.83 226.13 208.77 227.84C208.03 229.05 207.67 225.92 207.64 225.84C207.373 226.055 207.093 226.252 206.8 226.43C206.795 226.477 206.795 226.524 206.8 226.57C207.04 226.57 207.67 229.65 205.48 228.78C205.387 228.827 205.284 228.851 205.18 228.85L204.49 228.55C204.78 229 205.39 230.29 204.21 229.93C205.21 231.1 203.65 230.41 203.14 230.34C203.7 231.34 200.14 232.99 200.78 230.82C199.65 232.11 196.85 230.14 197.78 232.05C198.58 233.69 201.29 235.46 202.97 234.18C203.44 233.749 204.011 233.443 204.63 233.29C205.63 232.98 205.15 231.49 205.9 231.11C206.3 230.9 207.96 230.8 208.59 230.6C208.9 230.27 209.04 229.96 209.41 229.6C210.02 229 208.65 226.99 210.21 227.15C212.47 227.39 212.45 229.88 214.11 230.84C214.67 232.12 213.73 236.84 214.81 237.1C218.2 235.69 218.66 241.19 220.99 241.19C220.99 240.75 221.2 240.56 221.52 240.59C221.558 240.592 221.596 240.602 221.63 240.62C221.665 240.637 221.695 240.661 221.72 240.69L221.65 240.24C221.8 239.96 221.98 239.89 222.21 240.05H222.26L222.66 239.55C222.6 239.55 221.31 247.63 224.13 248.06C224.06 247.75 222.47 242.75 224.57 243.24C224.707 243.352 224.8 243.51 224.831 243.684C224.862 243.858 224.83 244.038 224.74 244.19C224.42 245.63 224.32 244.73 225.29 246.19L225.36 246.3C225.78 246.91 228.23 245.97 228.46 245.8L228.61 245.63C229.55 244.63 231.98 247.87 230.41 248.63C230.252 248.586 230.116 248.488 230.024 248.352C229.933 248.217 229.892 248.053 229.91 247.89C228.48 249.62 226.2 249.09 225.57 250.51C227.27 250.208 228.942 249.767 230.57 249.19C233.088 248.415 235.782 248.415 238.3 249.19C240.53 249.75 242.18 248.33 244.55 249.56C244.979 249.774 245.42 249.965 245.87 250.13C244.8 249.37 246.24 247.62 246.87 247.13C248.21 246.05 247.69 244.13 249.25 243.2C250.61 242.39 251.1 242.15 251.42 240.68C253.3 238.68 256.27 237.84 258.09 240.48C259.55 242.42 256.49 240.99 256.17 241.9C255.77 243.06 256.77 243.71 256.07 244.9C256.081 245.142 256.044 245.384 255.96 245.61V245.76C255.803 246.888 255.933 248.037 256.34 249.1C257.07 251.26 258.21 248.64 259.66 249.1C259.3 247.86 260.44 246.7 261.07 245.75C261.3 245.21 261.6 244.48 262.31 244.35C262.42 243.74 262.36 242.88 261.94 242.64C261.27 242.33 262.05 242.76 262 242.72Z" fill="white"/>
<path d="M225.8 195.34L225.69 195.18C225.27 195.26 225.19 195.82 224.77 195.44C224.61 195.29 224.33 195.37 224.15 195.44C223.65 195.6 223.82 195.68 223.4 195.38L223.3 195.54C223.49 196 223.92 196.81 224.54 196.42C224.87 196.22 225.33 196.3 225.62 196.03C225.91 195.76 225.72 195.56 225.8 195.35V195.34Z" fill="white"/>
<path d="M263.16 199.87C262.68 199.65 262.42 199.04 262.16 198.63C261.58 197.72 261.33 198.94 260.68 199.2C259.79 199.56 259.63 199.43 259.68 200.46C259.68 201.15 258.86 201.74 258.55 202.4C257.926 203.082 257.229 203.693 256.47 204.22C255.367 204.695 254.227 205.077 253.06 205.36C252.913 205.405 252.763 205.435 252.61 205.45C250.93 205.86 248.97 208.9 249.56 210.65C250.15 212.4 252.11 210.51 253.18 211.29C254.18 211.59 254.01 213.68 253.42 214.29C252.85 215.04 253.62 215.81 253.25 216.57C252.66 216.86 252.61 217.23 253.09 217.69C253.362 218.268 253.518 218.893 253.55 219.53C253.73 220.32 254.77 220.4 255.02 221.16C255.075 221.669 255.274 222.151 255.592 222.551C255.911 222.951 256.337 223.253 256.82 223.42L257.36 223.57C258.61 223.76 259.31 223.95 259.76 225.17C260.358 226.251 261.258 227.134 262.35 227.71C263.05 228.12 262.23 230.3 261.99 230.81C261.36 232.16 259.26 231.99 258.68 233.46L259.32 233.38C260.04 233.38 260.32 234.18 260.24 234.79C260.371 235.252 260.332 235.745 260.13 236.18L260.07 236.28C259.965 236.464 259.881 236.658 259.82 236.86C259.816 237.399 259.984 237.924 260.3 238.36C260.76 238.91 261.61 239.36 261.99 238.59C262.02 238.537 262.069 238.498 262.127 238.482C262.185 238.465 262.247 238.471 262.3 238.5L262.46 238.57C261.91 236.71 263.31 235.79 264.92 235.36C265.699 235.079 266.514 234.907 267.34 234.85C268.268 234.734 269.205 234.985 269.95 235.55C271.95 235.77 270.09 239.01 271.76 238.77C270.95 237.13 272.88 237.77 272.82 236.5H272.43C271.66 236.41 271.36 235.23 271.24 234.65C270.94 233.29 271.68 233.45 271.86 232.79C271.712 232.691 271.555 232.607 271.39 232.54L271.26 232.48C270.88 232.31 273.33 231.4 273.5 231.04C273.77 230.47 272.87 227.89 273.45 227.73C273.528 227.733 273.605 227.752 273.675 227.788C273.745 227.824 273.806 227.875 273.854 227.937C273.902 227.999 273.935 228.071 273.952 228.148C273.968 228.224 273.968 228.304 273.95 228.38C274.17 227.93 275.23 228.1 275.59 228.28C275.693 228.328 275.787 228.392 275.87 228.47C275.985 228.386 276.106 228.31 276.23 228.24L276.03 227.92C275.52 227.09 277.92 227.56 278.03 227.63C278.88 227.99 279.03 229.38 279.62 229.96C279.55 230.24 279.41 230.7 278.95 230.64C278.629 231.173 278.239 231.66 277.79 232.09C277.41 232.38 276.27 232.44 276.16 233.01C276.09 233.36 276.16 234.01 275.91 234.29C275.782 234.383 275.628 234.433 275.47 234.433C275.312 234.433 275.158 234.383 275.03 234.29C274.957 234.671 274.768 235.02 274.49 235.29C276.49 236.03 274.49 238.29 274.86 239.71C275.23 241.13 276.17 242.63 274 242.8C275.1 243.16 274.6 244.09 276 243.8C277 243.58 277.14 241.8 277.65 241.13C278.418 240.371 279.29 239.724 280.24 239.21C280.971 239.277 281.708 239.185 282.4 238.94L282.58 238.73C282.92 238.33 282.88 238.97 283.11 238.97C284.34 237.97 284.54 236.69 284.21 234.97C284.128 233.768 284.327 232.563 284.79 231.45C285.171 230.469 285.823 229.616 286.67 228.99L286.94 228.75C287.658 228.059 288.465 227.467 289.34 226.99C289.58 226.88 290.02 226.65 290.34 226.83C290.96 227.24 291.77 226.29 292.68 226.94L292.8 226.55L292.57 226.42C292.523 226.388 292.482 226.347 292.45 226.3C291.88 225.768 291.415 225.134 291.08 224.43L290.88 224.07C289.429 221.838 288.32 219.401 287.59 216.84C287.04 214.56 288.32 213.14 288.24 210.9C288.15 208.09 290.1 204.77 291.3 202.3C290.12 202 288.61 201.82 287.78 200.8C287.78 201.08 287.78 201.36 287.83 201.63C287.88 201.9 286.56 203.13 286.3 203.34L286.12 203.45C284.84 204.1 282.04 200.99 281.58 200.02C280.53 197.81 278.88 195.29 275.9 196.02C274.77 196.28 273.68 197.39 272.57 197.87C271.5 198.295 270.478 198.831 269.52 199.47C267.92 200.58 265.85 201.88 263.9 200.62C263.9 200.62 263.8 200.62 263.76 200.56C263.714 200.525 263.678 200.479 263.653 200.427C263.629 200.375 263.618 200.318 263.62 200.26C263.57 200.1 263.43 200.02 263.19 200.01C263.19 200.01 263.03 199.94 263.19 200.01C262.6 199.62 263.17 199.87 263.16 199.87Z" fill="white"/>
<path d="M271.38 164.91C272.22 165.14 272.87 165.27 272.69 166.37C272.66 166.796 272.66 167.224 272.69 167.65C272.69 167.65 272.69 167.65 272.69 167.7C273.16 168.78 274.69 168.34 275.34 169.38C275.372 169.391 275.4 169.409 275.423 169.434C275.446 169.458 275.462 169.488 275.47 169.52L275.57 169.87C275.575 169.93 275.575 169.99 275.57 170.05C275.73 171.24 274.41 172.17 273.35 172.23H272.82C272.24 172.31 272.2 172.64 272.11 173.53V173.79C272.11 173.99 272.11 174.18 272.05 174.38C272.05 174.654 271.989 174.924 271.87 175.17C271.764 175.434 271.677 175.704 271.61 175.98C271.588 176.658 271.481 177.33 271.29 177.98C271.218 178.217 271.208 178.468 271.261 178.709C271.313 178.951 271.427 179.175 271.59 179.36L271.68 179.45C271.858 179.613 272.052 179.757 272.26 179.88C272.483 179.999 272.691 180.143 272.88 180.31C273.34 180.65 271.59 182.72 271.24 183.13C270.61 183.98 269.6 184.54 269.9 185.71C270.005 186 270.069 186.303 270.09 186.61C270.147 186.857 270.147 187.113 270.09 187.36C270.078 187.455 270.035 187.544 269.969 187.612C269.902 187.681 269.815 187.726 269.72 187.74C269.661 187.752 269.599 187.752 269.54 187.74C269.3 187.74 269.07 187.74 268.83 187.74C268.659 187.781 268.485 187.811 268.31 187.83H268.08C267.836 187.781 267.582 187.816 267.36 187.93C267 188.58 266.86 188.85 266.08 188.77C265.371 188.819 264.671 188.947 263.99 189.15C263.32 189.56 263.99 190.15 263.99 190.77C264 191.039 263.959 191.307 263.87 191.56C263.75 192.13 263.22 193.4 263.87 193.9C264.14 194 263.87 194.34 264.1 194.54C264.69 195.22 264.62 196.54 264.59 197.35C264.643 198.045 264.568 198.743 264.37 199.41C264.341 199.54 264.287 199.662 264.21 199.77C264.03 200.15 265.02 200.08 265.21 200.11C266.63 200.36 266.7 200.25 267.87 199.44C268.7 198.86 269.71 198.52 270.57 197.97C271.57 197.31 273.47 197.06 274.29 196.34C277.2 193.8 281.96 196.44 282.15 200.06C283.02 200.06 284.22 201.83 284.84 202.34C285.99 203.27 286.56 202.22 287.4 201.43C287.4 200.92 287.32 199.17 288.27 200.32C288.99 201.17 290.53 201.32 291.53 201.62C291.53 200.42 292.82 200.2 293.69 199.75C294.85 199.13 294.93 196.75 295.12 195.6C295.633 192.159 295.777 188.672 295.55 185.2C295.44 182.79 294.64 180.95 293.89 178.6C293.447 176.718 293.626 174.742 294.4 172.97C294.632 172.272 294.941 171.601 295.32 170.97C295.723 170.595 296.097 170.191 296.44 169.76C295.49 169.65 297.1 166.57 298.09 169.01C298.105 168.617 298.257 168.242 298.52 167.949C298.783 167.657 299.141 167.466 299.53 167.41H299.68C300.41 167.2 303.68 167.41 303.09 168.77C303.46 168.92 303.8 169.16 303.66 169.63C303.885 169.839 304.125 170.029 304.38 170.2C304.74 169.35 303.65 168.57 303.88 168.05C302.95 168.21 303.32 166.72 303.82 166.45C303.796 166.107 303.858 165.763 304 165.45L304.07 165.18C304.23 164.65 304.56 165.26 304.62 165.4C304.634 165.186 304.604 164.972 304.53 164.77C304.28 165.26 303.22 164.17 303.22 163.87C303.22 163.33 304.41 163.2 304.41 162.56C302.88 163.29 303.28 160.28 305.06 160.63C304.98 159.71 303.55 159.55 304.86 158.63C305.48 158.19 305.15 155.88 306.53 156.5C306.24 155.58 305.95 154.09 307.36 154.09H307.46C307.93 154.09 307.57 154.65 307.46 154.74C307.554 154.915 307.701 155.055 307.88 155.14C307.57 154.91 307.38 154.51 308.06 154.26C307.24 152.62 308.91 153.32 309.8 153.45C309.13 152.84 309.69 152.75 310.13 152.69C308.63 151.77 310.23 152.06 311.02 151.89C309.89 150.22 309.72 151.45 311.12 150.25C309.21 150.04 311.66 148.87 311.66 148.88H311C310.49 148.88 310.73 147.88 311.14 147.78C310.99 147.63 311 147.49 311.14 147.35L311.33 147.27L311.7 147.09C309.79 147.64 311.65 145.99 311.76 145.86L311.56 145.76C310.77 145.38 313.09 144.57 313.18 144.54C313.38 144.26 313.12 143.9 313.45 143.6C313.24 144.16 312.1 144.89 311.77 144.01C311.44 143.13 314.04 142.87 313.77 141.81L313.7 141.74C313.48 141.556 313.305 141.325 313.187 141.063C313.069 140.802 313.012 140.517 313.02 140.23C312.88 140.35 312.47 141.04 312.19 140.99C311.65 140.93 312.34 137.91 312.52 137.57C313.32 136.08 311.33 134.29 311.82 132.81C312.41 131 308.54 130.81 310.33 128.46C310.5 128.23 309.62 127.79 309.53 127.71C308.94 127.15 309.89 126.15 309.3 125.25L309.19 125.06C308.33 123.7 307.76 122.14 306.58 120.97L306.36 120.75C305.98 120.38 305.65 119.75 305.25 119.43C303.71 120.14 303.15 117.95 302.86 116.86V116.74C301.54 111.89 300.93 104.8 302.94 100.04L303.04 99.8102C303.078 99.6493 303.101 99.4853 303.11 99.3202C301.41 101.08 299.64 100.95 298.11 99.1502L297.94 98.9402C297.48 98.3902 296.94 97.7002 296.22 97.6402H296C295.564 97.5996 295.142 97.4716 294.757 97.2636C294.372 97.0557 294.033 96.7722 293.76 96.4302C293.92 97.6402 292.52 99.4302 292.13 100.67C291.703 101.974 291.392 103.312 291.2 104.67C291.06 105.86 292.95 104.47 293.31 104.43H293.51C294.4 104.32 294.58 103.6 295.59 103.93H295.69C296.24 104.11 297 103.46 297.4 103.11C296.71 102.28 298.57 101.6 299.4 102.82C300.6 104.63 299.8 105.23 299.72 107.12V107.31C299.702 108.762 299.207 110.168 298.31 111.31C297.09 112.67 296.5 110.85 295.31 110.49H295.13C294.13 110.23 294.8 109.49 293.97 109.02H293.88C293.758 109.017 293.639 108.985 293.531 108.928C293.424 108.871 293.331 108.789 293.26 108.69C293.19 108.93 292.91 109.31 292.98 109.59C292.995 109.639 292.995 109.691 292.98 109.74C293.91 110.18 292.12 112.34 291.63 112.55C290.09 113.21 289.2 111.72 289.08 110.47V110.36C288.89 108.48 288.92 106.44 288.65 104.6C288.639 104.392 288.564 104.192 288.434 104.029C288.304 103.865 288.127 103.747 287.926 103.689C287.725 103.632 287.512 103.639 287.315 103.709C287.119 103.779 286.949 103.909 286.83 104.08C286 105.08 285.17 104.44 284.55 103.58L284.49 103.49C284.289 103.292 284.064 103.121 283.82 102.98C283.76 103.69 283.92 105.77 282.82 105.79C283.45 106.12 283.43 106.79 283.54 107.36C283.739 107.4 283.933 107.461 284.12 107.54L284.22 107.78V107.53C284.99 107.47 285.47 108.32 284.5 108.26C284.5 108.44 284.5 109.83 283.97 109.16L283.71 108.86C283.652 108.782 283.589 108.709 283.52 108.64C283.46 109.36 283.36 110.08 283.23 110.8L283.18 111.09C283.04 111.87 282.57 114.69 281.18 113.93C280.75 114.28 280.31 114.77 279.7 114.77C279.09 114.77 278.7 113.86 278.1 114.61C277.156 115.674 276.284 116.8 275.49 117.98C275.55 118.17 276.61 118.13 276.82 118.78C276.97 119.354 277.01 119.951 276.94 120.54C276.81 122.27 278.28 123.02 278.26 124.76V124.99C278.161 127.069 277.561 129.093 276.51 130.89L276.45 130.99C275.45 132.72 274.34 133.31 272.62 131.99C272.62 132.29 273.2 132.8 272.89 132.99H272.82C273.08 134.09 274.11 135.24 275.16 134.21C276.58 132.81 278.46 134.87 278.63 136.33C279.05 139.75 279.37 143.62 277.85 146.9C277.57 147.51 276.85 147.69 276.58 148.26C276.265 148.988 276.122 149.778 276.16 150.57C276.11 152.39 275.16 154.13 274.71 155.87C273.83 159.3 271.29 161.13 270.14 164.32H270.23C270.65 164.48 271.06 164.66 271.47 164.86C271.44 164.92 271.25 164.85 271.38 164.91Z" fill="white"/>
<path d="M5.71001 428.19C5.15001 428.02 2.88001 427.19 2.71001 427.79C2.54001 428.39 2.71001 430.07 1.71001 429.27C1.64001 429.38 0.480011 429.78 1.21001 430.14C2.32564 430.568 3.51617 430.765 4.71001 430.72C6.07001 430.3 6.27001 428.03 5.71001 428.19ZM13.71 423.71C12.91 424.1 12.2 425.87 11.64 426.61C10.91 427.61 9.89001 425.94 8.99001 427.05C9.20001 426.79 10.47 429.13 10.77 429.16C12.47 429.37 12.38 427.16 12.77 426.16C12.91 425.74 14.39 424.16 13.77 423.7C13 424.08 13.77 423.7 13.77 423.7L13.71 423.71ZM30.87 418.25C30.05 417.81 29.18 419.08 30.2 419.25C31.22 419.42 31.07 418.61 30.87 418.25ZM35.22 419.9C34.63 419.57 33.87 419.66 33.38 419.14C32.89 418.62 32.87 417.55 31.99 417.42C32.9 418.78 30.89 420.93 33.38 420.82C34.22 420.82 36.51 420.62 34.87 419.71C34.87 419.71 35.2 419.84 35.22 419.9ZM51 403.51C50.7 403.14 50.12 404.51 50.69 404.82C50.8748 404.407 50.98 403.963 51 403.51ZM39.94 400.21C39.746 400.007 39.4955 399.867 39.2208 399.808C38.9462 399.749 38.6602 399.775 38.4 399.88C37.4 400.25 38.95 400.83 39.15 401.13C39.74 401.97 40.09 401.29 40.04 400.58C39.99 399.87 39.85 400.3 39.94 400.21ZM48.34 395.21C48.2835 395.214 48.2283 395.229 48.1776 395.254C48.1268 395.28 48.0816 395.314 48.0444 395.357C48.0072 395.4 47.9789 395.45 47.961 395.503C47.9431 395.557 47.9359 395.614 47.94 395.67C48.0519 395.703 48.1712 395.699 48.2809 395.66C48.3905 395.62 48.4848 395.547 48.55 395.45C48.41 395.76 48.3 394.89 48.34 395.21ZM59.1 393L59.6 392.91V392.29C59.5 392.34 58.34 392.29 58.51 392.6L59.13 393H59.1ZM69.76 391C70.12 390.39 68.58 389.34 68.24 389C68.41 390.33 64.92 392.95 65.43 393.6C65.27 393.7 62.94 395.18 63.09 394.04C63.24 392.9 62.61 392.97 61.5 393.04C59.5 393.25 62.67 395.7 62.39 396.18C61.94 396.98 61.02 396.95 60.32 397.42C59.4819 397.91 58.6707 398.444 57.89 399.02C57.62 399.86 58.97 401.67 57.69 402.1C57.07 402.3 57.12 403.88 56.23 403.49C56.1 404.49 56.62 405.35 56.49 406.3C57.201 406.295 57.8954 406.085 58.4897 405.695C59.084 405.305 59.5529 404.751 59.84 404.1C58.57 403.67 58.65 403.85 59.32 402.38C60.2 400.45 60.48 402.08 61.71 401.44C61.3537 400.613 60.8897 399.836 60.33 399.13C59.33 398.51 62.18 398.42 62.18 398.42C62.2195 398.383 62.2507 398.338 62.2714 398.288C62.292 398.238 62.3018 398.184 62.3 398.13C62.9132 397.257 63.7836 396.596 64.79 396.24C66.65 396.5 65.37 395.59 66.24 394.93C67.45 394.01 68.54 394.4 69.24 392.73C69.36 392.43 70.14 390.49 69.77 390.98L69.76 391ZM72.06 385.33C71.53 384.41 70.44 386.18 71.68 386.06C72.47 385.99 71.76 384.75 72.06 385.33ZM62.8 385.64C63.0138 385.288 63.1786 384.908 63.29 384.51C62.6312 384.943 62.1214 385.568 61.83 386.3C62.05 386.21 63.23 385.52 62.83 385.64H62.8ZM77 376.69C77.19 377.16 73.66 377.51 73.6 377.58C72.73 378.84 75.34 379.3 75.36 378.24C75.75 378.5 76.85 376.61 77 376.69ZM68 368.07C68.0345 367.972 68.0311 367.864 67.9904 367.768C67.9498 367.672 67.8747 367.594 67.78 367.55C67.7 368.22 68.14 367.99 68 368.07ZM83 369.17C82.22 368.74 82.34 365.94 81.08 366.81C80.5 367.2 80.21 370.26 80.79 370.6C81.63 371.09 81.5 372.25 82.62 371C83.3 370.26 83.17 369.21 83 369.17ZM89.08 361.97C88.2 362.1 87.4 361.71 87.99 360.84C87.62 360.89 86.78 361.04 87.18 360.39C86.8722 360.356 86.5607 360.394 86.27 360.5C86.64 362.07 87.43 362.05 88.18 362.99C88.63 362.63 89.4 363.09 89.53 362.93C89.79 362.62 88.84 361.77 89.08 361.93V361.97ZM102.57 356.67C101.857 357.102 101.187 357.601 100.57 358.16C101.81 358.56 103.13 358.16 102.84 356.48L102.61 356.67H102.57ZM96.57 354.67C96.43 354.39 96.4 353.39 95.95 353.36C96.32 353.36 94.09 356.7 94.95 354.07C94.0095 354.442 93.2448 355.157 92.81 356.07C92.52 355.9 92.16 355.78 92.01 355.45C91.85 355.93 91.31 356.45 90.8 356.07C90.39 356.8 88 357.56 87.19 358.02C87.42 358.52 87.95 358.46 88.41 358.47C87.83 359.47 85.9 358.47 85.59 359.12C85.59 359.22 87.65 360.49 88 359.67C88.8 360.2 88.69 361.62 90.07 362.09C90.1188 361.909 90.0975 361.715 90.0105 361.549C89.9234 361.382 89.7769 361.254 89.6 361.19C90.25 360.75 91.11 360.46 91.86 359.97C91.5655 359.702 91.2549 359.451 90.93 359.22C91.27 359.1 91.81 358.73 91.47 358.32C92.63 358.08 94.28 357.32 94.75 356.01C94.99 355.36 97.4 355.39 96.6 354.7L96.57 354.67Z" fill="white"/>
<path d="M313.46 313.86C312.89 313.75 310.54 313.15 310.46 313.78C310.38 314.41 310.68 316.05 309.62 315.35C309.56 315.47 308.45 315.99 309.21 316.27C310.364 316.575 311.569 316.643 312.75 316.47C314.06 315.92 314.01 313.64 313.44 313.86H313.46ZM320.94 308.56C320.19 309.03 319.67 310.87 319.19 311.67C318.57 312.67 317.38 311.19 316.6 312.38C316.78 312.1 318.3 314.29 318.6 314.3C320.31 314.3 319.99 312.18 320.24 311.12C320.33 310.68 321.64 308.96 320.94 308.56C320.21 309.02 320.94 308.56 320.94 308.56ZM337.43 301.32C336.56 300.96 335.83 302.32 336.87 302.32C337.91 302.32 337.66 301.59 337.43 301.32ZM341.93 302.5C341.31 302.24 340.57 302.41 340.02 301.94C339.47 301.47 339.34 300.42 338.45 300.38C339.5 301.63 337.73 303.99 340.19 303.62C341.02 303.5 343.29 303.09 341.56 302.35C341.61 302.35 341.9 302.44 341.93 302.5ZM355.93 284.5C355.59 284.16 355.16 285.61 355.76 285.83C355.894 285.4 355.951 284.95 355.93 284.5ZM344.58 282.38C344.365 282.199 344.101 282.085 343.821 282.055C343.541 282.025 343.259 282.079 343.01 282.21C342.1 282.69 343.65 283.1 343.89 283.37C344.57 284.15 344.84 283.44 344.71 282.73C344.58 282.02 344.5 282.48 344.58 282.38ZM352.39 276.48C352.278 276.502 352.179 276.567 352.114 276.66C352.049 276.753 352.022 276.868 352.04 276.98C352.154 277.001 352.271 276.984 352.375 276.934C352.479 276.884 352.565 276.802 352.62 276.7C352.52 277.01 352.32 276.17 352.39 276.48ZM362.86 273.14L363.34 272.99L363.25 272.38C363.15 272.44 362 272.54 362.19 272.8L362.86 273.14ZM373.25 270.07C373.55 269.42 371.9 268.54 371.52 268.22C371.84 269.53 368.64 272.5 369.22 273.09C369.07 273.21 366.91 274.93 366.94 273.77C366.97 272.61 366.35 272.77 365.26 272.99C363.26 273.41 366.7 275.51 366.48 275.99C366.11 276.84 365.19 276.9 364.55 277.44C363.764 278.012 363.012 278.629 362.3 279.29C362.12 280.15 363.66 281.81 362.43 282.37C361.84 282.64 362.06 284.2 361.13 283.91C361.13 284.91 361.71 285.71 361.69 286.68C362.397 286.601 363.065 286.317 363.614 285.864C364.162 285.412 364.567 284.809 364.78 284.13C363.48 283.84 363.57 284.02 364.09 282.48C364.76 280.48 365.21 282.06 366.37 281.29C365.926 280.506 365.381 279.783 364.75 279.14C363.68 278.63 366.51 278.24 366.51 278.24C366.548 278.201 366.576 278.154 366.592 278.101C366.607 278.049 366.61 277.994 366.6 277.94C366.69 277.44 368.38 275.78 368.88 275.79C370.75 275.85 369.39 275.09 370.18 274.34C371.28 273.34 372.41 273.57 372.91 271.84C373 271.53 373.57 269.52 373.25 270.05V270.07ZM374.95 264.18C374.32 263.32 373.42 265.18 374.65 264.95C375.42 264.79 374.58 263.64 374.95 264.18ZM365.77 265.48C365.943 265.104 366.067 264.708 366.14 264.3C365.531 264.8 365.088 265.473 364.87 266.23C365.08 266.12 366.18 265.31 365.77 265.48ZM378.89 255.08C379.12 255.53 375.65 256.24 375.61 256.32C374.87 257.66 377.51 257.85 377.42 256.79C377.84 257.01 378.73 255.01 378.89 255.08ZM369 247.49C369.023 247.389 369.006 247.282 368.955 247.191C368.903 247.101 368.819 247.033 368.72 247C368.72 247.67 369.13 247.4 369 247.49ZM384.05 246.99C383.23 246.65 383.05 243.85 381.89 244.85C381.36 245.31 381.4 248.37 382 248.65C382.89 249.05 382.88 250.22 383.86 248.86C384.46 248.05 384.23 247.02 384.05 246.99ZM389.34 239.2C388.47 239.43 387.64 239.12 388.13 238.2C387.77 238.28 386.95 238.53 387.28 237.84C386.967 237.835 386.658 237.907 386.38 238.05C386.92 239.57 387.7 239.47 388.55 240.32C388.96 239.92 389.77 240.32 389.88 240.12C390.1 239.78 389.07 239.03 389.34 239.21V239.2ZM402.18 232.5C401.506 233.005 400.88 233.571 400.31 234.19C401.59 234.46 402.85 233.9 402.39 232.28L402.18 232.5ZM396.03 231.14C395.85 230.88 395.72 229.89 395.28 229.91C395.64 229.91 393.78 233.43 394.28 230.72C393.395 231.188 392.712 231.963 392.36 232.9C392.06 232.76 391.69 232.68 391.5 232.37C391.39 232.86 390.91 233.37 390.37 233.11C390.04 233.88 387.74 234.89 386.98 235.43C387.27 235.9 387.78 235.79 388.24 235.75C387.76 236.75 385.74 235.97 385.5 236.7C385.5 236.8 387.7 237.84 387.96 236.99C388.81 237.43 388.86 238.86 390.28 239.17C390.4 238.81 390.04 238.42 389.72 238.33C390.32 237.82 391.14 237.45 391.84 236.88C391.54 236.61 391.16 236.47 390.84 236.23C391.16 236.07 391.65 235.64 391.27 235.28C392.4 234.92 393.97 233.96 394.27 232.64C394.43 231.97 396.83 231.74 395.96 231.14H396.03Z" fill="white"/>
<circle cx="278" cy="225" r="4" fill="#EC3B3B"/>
<path d="M290.5 222.64H288.04V222H293.7V222.64H291.24V229H290.5V222.64ZM296.535 229.05C296.029 229.05 295.572 228.937 295.165 228.71C294.759 228.477 294.439 228.157 294.205 227.75C293.972 227.343 293.855 226.883 293.855 226.37C293.855 225.857 293.972 225.397 294.205 224.99C294.439 224.583 294.759 224.267 295.165 224.04C295.572 223.813 296.029 223.7 296.535 223.7C297.042 223.7 297.499 223.813 297.905 224.04C298.312 224.267 298.629 224.583 298.855 224.99C299.089 225.397 299.205 225.857 299.205 226.37C299.205 226.883 299.089 227.343 298.855 227.75C298.629 228.157 298.312 228.477 297.905 228.71C297.499 228.937 297.042 229.05 296.535 229.05ZM296.535 228.42C296.909 228.42 297.242 228.337 297.535 228.17C297.835 227.997 298.069 227.753 298.235 227.44C298.402 227.127 298.485 226.77 298.485 226.37C298.485 225.97 298.402 225.613 298.235 225.3C298.069 224.987 297.835 224.747 297.535 224.58C297.242 224.407 296.909 224.32 296.535 224.32C296.162 224.32 295.825 224.407 295.525 224.58C295.232 224.747 294.999 224.987 294.825 225.3C294.659 225.613 294.575 225.97 294.575 226.37C294.575 226.77 294.659 227.127 294.825 227.44C294.999 227.753 295.232 227.997 295.525 228.17C295.825 228.337 296.162 228.42 296.535 228.42ZM302.805 226.36L301.565 227.5V229H300.855V221.58H301.565V226.61L304.705 223.74H305.585L303.335 225.89L305.795 229H304.925L302.805 226.36ZM311.207 223.74L308.577 229.63C308.364 230.123 308.117 230.473 307.837 230.68C307.557 230.887 307.221 230.99 306.827 230.99C306.574 230.99 306.337 230.95 306.117 230.87C305.897 230.79 305.707 230.67 305.547 230.51L305.877 229.98C306.144 230.247 306.464 230.38 306.837 230.38C307.077 230.38 307.281 230.313 307.447 230.18C307.621 230.047 307.781 229.82 307.927 229.5L308.157 228.99L305.807 223.74H306.547L308.527 228.21L310.507 223.74H311.207ZM314.411 229.05C313.904 229.05 313.447 228.937 313.041 228.71C312.634 228.477 312.314 228.157 312.081 227.75C311.847 227.343 311.731 226.883 311.731 226.37C311.731 225.857 311.847 225.397 312.081 224.99C312.314 224.583 312.634 224.267 313.041 224.04C313.447 223.813 313.904 223.7 314.411 223.7C314.917 223.7 315.374 223.813 315.781 224.04C316.187 224.267 316.504 224.583 316.731 224.99C316.964 225.397 317.081 225.857 317.081 226.37C317.081 226.883 316.964 227.343 316.731 227.75C316.504 228.157 316.187 228.477 315.781 228.71C315.374 228.937 314.917 229.05 314.411 229.05ZM314.411 228.42C314.784 228.42 315.117 228.337 315.411 228.17C315.711 227.997 315.944 227.753 316.111 227.44C316.277 227.127 316.361 226.77 316.361 226.37C316.361 225.97 316.277 225.613 316.111 225.3C315.944 224.987 315.711 224.747 315.411 224.58C315.117 224.407 314.784 224.32 314.411 224.32C314.037 224.32 313.701 224.407 313.401 224.58C313.107 224.747 312.874 224.987 312.701 225.3C312.534 225.613 312.451 225.97 312.451 226.37C312.451 226.77 312.534 227.127 312.701 227.44C312.874 227.753 313.107 227.997 313.401 228.17C313.701 228.337 314.037 228.42 314.411 228.42Z" fill="#EC3B3B"/>
</svg>
